<?xml version="1.0" encoding="UTF-8" standalone="no"?>
<!-- Created with Inkscape (http://www.inkscape.org/) -->

<svg
   xmlns:dc="http://purl.org/dc/elements/1.1/"
   xmlns:cc="http://creativecommons.org/ns#"
   xmlns:rdf="http://www.w3.org/1999/02/22-rdf-syntax-ns#"
   xmlns:svg="http://www.w3.org/2000/svg"
   xmlns="http://www.w3.org/2000/svg"
   xmlns:xlink="http://www.w3.org/1999/xlink"
   xmlns:sodipodi="http://sodipodi.sourceforge.net/DTD/sodipodi-0.dtd"
   xmlns:inkscape="http://www.inkscape.org/namespaces/inkscape"
   id="svg2"
   version="1.1"
   inkscape:version="0.91 r13725"
   width="1000"
   height="833"
   viewBox="0 0 1000 833"
   sodipodi:docname="FPRXVESIJ0EHOOA.RECT2100.jpg.svg">
  <metadata
     id="metadata8">
    <rdf:RDF>
      <cc:Work
         rdf:about="">
        <dc:format>image/svg+xml</dc:format>
        <dc:type
           rdf:resource="http://purl.org/dc/dcmitype/StillImage" />
        <dc:title></dc:title>
      </cc:Work>
    </rdf:RDF>
  </metadata>
  <defs
     id="defs6" />
  <sodipodi:namedview
     pagecolor="#ffffff"
     bordercolor="#666666"
     borderopacity="1"
     objecttolerance="10"
     gridtolerance="10"
     guidetolerance="10"
     inkscape:pageopacity="0"
     inkscape:pageshadow="2"
     inkscape:window-width="640"
     inkscape:window-height="480"
     id="namedview4"
     showgrid="false"
     inkscape:zoom="0.56662665"
     inkscape:cx="574.40484"
     inkscape:cy="398.41303"
     inkscape:window-x="498"
     inkscape:window-y="143"
     inkscape:window-maximized="0"
     inkscape:current-layer="svg2"
     showguides="false" />
  <g
     id="g3469">
    <path
       style="fill:#2c6403"
       d="m 488,780.82428 c -29.71104,-2.3619 -70.58335,-30.91903 -64.63355,-45.15889 9.16373,-21.93189 84.45456,-33.0035 126.28787,-18.57079 4.86512,1.67849 10.42068,3.5778 12.34568,4.22067 11.85583,3.9594 16.05349,14.65162 9.16499,23.34493 C 550.14182,771.19153 521.80904,783.51197 488,780.82428 Z M 367.46645,708.47689 c -49.8651,-7.27706 -87.24404,-57.23908 -79.56362,-106.34756 5.86917,-37.52733 45.12509,-35.15447 82.04475,4.95928 45.82506,49.7896 44.39495,108.22914 -2.48113,101.38828 z m 238.80001,-1.06213 c -22.18279,-8.2288 -20.81769,-49.69158 2.85255,-86.64227 36.01292,-56.21834 85.42124,-73.5754 97.42389,-34.22485 15.57498,51.06238 -13.31454,103.7964 -65.18968,118.99518 -11.39245,3.33785 -28.65262,4.25871 -35.08676,1.87194 z M 489,681.36262 C 425.68501,672.11816 399.1446,604.12358 442,560.95205 471.77297,530.95947 521.60255,528.4153 553.06303,555.28148 580.96065,579.10509 586.62869,610.48257 569.08917,644 556.67593,667.72128 518.27308,685.6367 489,681.36262 Z M 264.25908,561.50133 c -33.005,-37.03079 -24.79448,-96.84382 17.17335,-125.10661 10.7604,-7.24647 16.28001,-0.50669 18.64802,22.77039 1.94315,19.1008 0.48341,37.39999 -5.15909,64.67361 -2.11935,10.24408 -8.96077,27.53352 -13.63442,34.4565 -7.23443,10.71621 -9.88877,11.21599 -17.02786,3.20611 z M 715.3434,561.75 c -19.2187,-20.48614 -31.88807,-103.5267 -19.62215,-128.6122 2.49021,-5.09283 5.37263,-5.17241 12.80444,-0.35352 43.52411,28.22166 52.19799,85.42885 19.02338,125.46572 -6.33005,7.63944 -7.89999,8.08962 -12.20567,3.5 z M 378.20171,544.97784 c -52.80653,-13.83446 -64.33178,-86.64832 -20.78025,-131.28485 55.33796,-56.7166 135.85656,-18.6083 122.13978,57.80701 -8.86818,49.40411 -57.81402,84.88607 -101.35953,73.47784 z M 592.5,542.99848 c -54.70248,-8.22735 -92.11823,-79.56395 -66.76437,-127.29245 19.37793,-36.47883 65.13171,-42.77175 101.3787,-13.9435 65.33658,51.96401 40.68218,152.56067 -34.61433,141.23595 z m 88,-140.89458 C 669.86933,396.37098 662.17252,391.50091 655,385.96908 651.425,383.21185 644.45,377.88732 639.5,374.13679 617.99474,357.84263 582,320.17637 582,313.96661 582,311.52114 590.8228,310 605.00682,310 653.211,310 693,349.61436 693,397.60696 l 0,8.39304 -2.75,-0.0606 c -1.5125,-0.0333 -5.9,-1.7593 -9.75,-3.83554 z m -382.50904,1.89051 c -1.89067,-1.16849 -0.61906,-19.54175 1.99467,-28.82078 12.65238,-44.91718 57.56887,-73.05249 102.26437,-64.05753 6.13715,1.2351 6.27089,1.38365 4.77895,5.30777 -4.76306,12.52779 -54.62382,58.99577 -79.02895,73.65141 -3.025,1.81656 -7.79225,4.77018 -10.59389,6.56361 -6.53763,4.18497 -17.70166,8.41452 -19.41515,7.35552 z M 491.5,374.99839 c -49.57131,-2.76699 -78.37827,-32.20614 -54.68033,-55.88033 33.5126,-33.47902 88.63557,-33.35792 122.57091,0.26928 29.81403,29.54332 -6.2127,59.05381 -67.89058,55.61105 z M 365,288.45951 c 0,-0.29727 1.0125,-1.91127 2.25,-3.58667 l 2.25,-3.04617 -2.16874,-1.75782 c -1.52357,-1.23491 -4.79587,-1.94605 -11,-2.39055 -4.85719,-0.348 -11.40319,-1.15198 -14.54667,-1.78662 l -5.7154,-1.15389 2.9654,-2.7701 c 5.07241,-4.73835 4.18586,-5.66512 -9.0244,-9.43389 -5.21939,-1.48905 -11.06939,-3.37745 -13,-4.19646 l -3.51019,-1.4891 3.81254,-1.9801 c 5.0845,-2.6407 4.51209,-4.6685 -2.32218,-8.22644 C 298.03168,237.81296 291.46896,233 296.38922,233 c 1.31406,0 3.45156,-0.89699 4.75,-1.99332 l 2.36078,-1.99332 -3.18064,-2.75668 c -1.74936,-1.51617 -6.81186,-5.42902 -11.25,-8.69522 C 280.05877,210.93024 279.48785,210 284.42857,210 c 8.8465,0 8.04753,-3.04111 -3.67857,-14.00165 C 270.78545,186.68435 270.46482,186 276.06574,186 c 10.53153,0 10.26288,-3.50153 -1.06574,-13.89045 -10.50493,-9.63356 -11.23992,-11.47557 -4.20662,-10.54257 8.66557,1.14953 8.83845,-4.22637 0.61703,-19.18733 l -3.36328,-6.12035 13.22643,-0.50288 c 17.85369,-0.6788 19.3462,-1.48956 14.13755,-7.67969 L 292.82221,125 l 6.92893,0 c 3.81092,0 10.4479,0.9 14.74886,2 12.365,3.16243 15.91587,1.59768 12.64835,-5.57374 -1.52886,-3.3555 0.81783,-3.24314 13.21773,0.63285 12.08898,3.7788 16.24061,1.53518 11.00114,-5.94522 -2.37192,-3.38639 2.57428,-2.21418 13.57648,3.21752 4.64404,2.29272 8.7543,4.30118 9.13393,4.46323 1.56051,0.66615 3.92237,-3.16719 3.92237,-6.36607 0,-4.45613 0.36794,-4.38127 8.95163,1.82143 12.08816,8.73508 11.8521,8.63655 14.109,5.88922 1.06666,-1.29844 1.93937,-3.43594 1.93937,-4.75 0,-3.85426 1.93746,-2.84268 9.78829,5.11062 4.23186,4.28709 7.89767,7.22056 8.55746,6.84789 2.87994,-1.62664 4.59179,-3.78688 5.20182,-6.56431 l 0.66093,-3.00919 5.45757,5.36288 c 3.00167,2.94959 7.09722,7.50039 9.10124,10.11289 4.5694,5.95682 7.52428,6.35106 9.36885,1.25 1.63807,-4.53001 1.89608,-4.46665 7.12532,1.75 29.43104,34.98836 31.55142,71.75025 5.01675,86.97732 l -3.01003,1.72732 -8.3841,-6.61459 C 427.35218,203.98572 392.70573,184.31523 356.5,169.18584 c -19.14416,-7.99983 -25.39748,-9.95728 -26.44044,-8.27652 -1.48722,2.3967 -0.32227,3.47766 9.21076,8.54672 C 387.35555,195.02469 446,237.35354 446,246.49222 c 0,8.37245 -13.04845,23.70883 -25.82919,30.3581 C 406.81968,283.79635 365,292.59615 365,288.45951 Z m 249.5,-1.04276 c -32.50151,-5.01803 -54.12336,-18.59534 -60.53075,-38.00992 -3.25833,-9.87284 50.71299,-50.76292 103.53075,-78.43761 13.65354,-7.15398 15.59642,-8.55437 14.78865,-10.65939 -0.821,-2.13951 -3.9462,-1.31601 -21.08063,5.55478 -39.80386,15.96107 -79.38382,37.90112 -103.70802,57.48765 -8.2001,6.60295 -8.7637,6.68909 -15.14081,2.31416 -21.90027,-15.02439 -19.06158,-49.63998 6.71765,-81.91642 7.13077,-8.92795 7.01619,-8.87515 9.22177,-4.25 2.19543,4.60387 4.5814,4.47715 8.544,-0.45378 C 567.11004,126.26979 573,121.17339 573,125.06574 c 0,8.97803 4.87452,9.14827 13.49533,0.47132 7.54721,-7.59636 9.50467,-8.82944 9.50467,-5.9874 0,7.00151 4.62655,8.8167 10.40449,4.08212 C 610.70598,120.10702 619.95708,114 620.99498,114 c 0.33188,0 0.43161,1.47162 0.22163,3.27027 -0.80841,6.92461 2.11189,7.44397 12.89073,2.29257 5.16596,-2.46891 10.62728,-4.77861 12.13626,-5.13268 l 2.7436,-0.64376 -1.48367,3.5509 c -3.1176,7.46148 -0.15227,8.60507 12.11969,4.67401 12.58512,-4.03137 13.49234,-3.9978 12.12764,0.44881 -2.07506,6.76116 0.5267,7.64164 13.43579,4.54689 C 692.98397,125.13772 706,124.26135 706,125.60564 c 0,0.33311 -1.15329,1.97625 -2.56286,3.65143 -4.22687,5.02335 -2.14245,5.99637 14.01971,6.54451 7.44873,0.25263 13.54315,0.65799 13.54315,0.9008 0,0.24281 -1.1046,2.32634 -2.45467,4.63005 -8.76679,14.9594 -8.71338,21.31527 0.17034,20.27117 2.90638,-0.34159 5.28433,-0.26983 5.28433,0.15946 0,1.19408 -7.93683,9.3906 -13.14165,13.57165 -7.88235,6.3319 -6.88876,10.64456 2.46308,10.69102 l 5.17857,0.0257 -9.75,9.53465 C 707.25012,206.83198 706.52136,210 715.43426,210 720.3204,210 716.7623,213.75615 703.25,222.86247 695.26747,228.24212 695.11928,233 702.93426,233 c 5.08871,0 -1.13317,4.63174 -16.60986,12.36484 -9.74722,4.87031 -10.67978,7.37268 -3.61633,9.70383 4.61151,1.52193 3.84763,1.97218 -11.95807,7.04829 -13.90969,4.46719 -14.94446,5.47282 -10.20905,9.92151 3.26625,3.06848 2.4164,3.42841 -11.71581,4.96179 -18.3257,1.9884 -21.21237,3.61251 -15.88663,8.93825 C 634.07233,287.07233 635,288.225 635,288.5 c 0,0.92262 -11.41481,0.31944 -20.5,-1.08325 z"
       id="path3473"
       inkscape:connector-curvature="0" />
    <path
       style="fill:#7d000b"
       d="m 488,780.82428 c -29.71104,-2.3619 -70.58335,-30.91903 -64.63355,-45.15889 9.16373,-21.93189 84.45456,-33.0035 126.28787,-18.57079 4.86512,1.67849 10.42068,3.5778 12.34568,4.22067 11.85583,3.9594 16.05349,14.65162 9.16499,23.34493 C 550.14182,771.19153 521.80904,783.51197 488,780.82428 Z M 367.46645,708.47689 c -49.8651,-7.27706 -87.24404,-57.23908 -79.56362,-106.34756 5.86917,-37.52733 45.12509,-35.15447 82.04475,4.95928 45.82506,49.7896 44.39495,108.22914 -2.48113,101.38828 z m 238.80001,-1.06213 c -22.18279,-8.2288 -20.81769,-49.69158 2.85255,-86.64227 36.01292,-56.21834 85.42124,-73.5754 97.42389,-34.22485 15.57498,51.06238 -13.31454,103.7964 -65.18968,118.99518 -11.39245,3.33785 -28.65262,4.25871 -35.08676,1.87194 z M 489,681.36262 C 425.68501,672.11816 399.1446,604.12358 442,560.95205 471.77297,530.95947 521.60255,528.4153 553.06303,555.28148 580.96065,579.10509 586.62869,610.48257 569.08917,644 556.67593,667.72128 518.27308,685.6367 489,681.36262 Z M 264.25908,561.50133 c -33.005,-37.03079 -24.79448,-96.84382 17.17335,-125.10661 10.7604,-7.24647 16.28001,-0.50669 18.64802,22.77039 1.94315,19.1008 0.48341,37.39999 -5.15909,64.67361 -2.11935,10.24408 -8.96077,27.53352 -13.63442,34.4565 -7.23443,10.71621 -9.88877,11.21599 -17.02786,3.20611 z M 715.3434,561.75 c -19.2187,-20.48614 -31.88807,-103.5267 -19.62215,-128.6122 2.49021,-5.09283 5.37263,-5.17241 12.80444,-0.35352 43.52411,28.22166 52.19799,85.42885 19.02338,125.46572 -6.33005,7.63944 -7.89999,8.08962 -12.20567,3.5 z M 378.20171,544.97784 c -52.80653,-13.83446 -64.33178,-86.64832 -20.78025,-131.28485 55.33796,-56.7166 135.85656,-18.6083 122.13978,57.80701 -8.86818,49.40411 -57.81402,84.88607 -101.35953,73.47784 z M 592.5,542.99848 c -54.70248,-8.22735 -92.11823,-79.56395 -66.76437,-127.29245 19.37793,-36.47883 65.13171,-42.77175 101.3787,-13.9435 65.33658,51.96401 40.68218,152.56067 -34.61433,141.23595 z m 88,-140.89458 C 669.86933,396.37098 662.17252,391.50091 655,385.96908 651.425,383.21185 644.45,377.88732 639.5,374.13679 617.99474,357.84263 582,320.17637 582,313.96661 582,311.52114 590.8228,310 605.00682,310 653.211,310 693,349.61436 693,397.60696 l 0,8.39304 -2.75,-0.0606 c -1.5125,-0.0333 -5.9,-1.7593 -9.75,-3.83554 z m -382.50904,1.89051 c -1.89067,-1.16849 -0.61906,-19.54175 1.99467,-28.82078 12.65238,-44.91718 57.56887,-73.05249 102.26437,-64.05753 6.13715,1.2351 6.27089,1.38365 4.77895,5.30777 -4.76306,12.52779 -54.62382,58.99577 -79.02895,73.65141 -3.025,1.81656 -7.79225,4.77018 -10.59389,6.56361 -6.53763,4.18497 -17.70166,8.41452 -19.41515,7.35552 z M 491.5,374.99839 c -49.57131,-2.76699 -78.37827,-32.20614 -54.68033,-55.88033 33.5126,-33.47902 88.63557,-33.35792 122.57091,0.26928 29.81403,29.54332 -6.2127,59.05381 -67.89058,55.61105 z"
       id="path3471"
       inkscape:connector-curvature="0" />
  </g>
</svg>
